name rise43.5482peak65.4966fall89.1036.mot
datacolumns 19
datarows 35
range 23.10157700000000 23.15824200000000
endheader
time	ground_force1_vx	ground_force1_vy	ground_force1_vz	ground_force1_px	ground_force1_py	ground_force1_pz	ground_force2_vx	ground_force2_vy	ground_force2_vz	ground_force2_px	ground_force2_py	ground_force2_pz	ground_torque1_x	ground_torque1_y	ground_torque1_z	ground_torque2_x	ground_torque2_y	ground_torque2_z	
23.10157700000000	-43.50599800000000	799.21300799999995	68.08546900000000	0.07092500000000	0.00000000000000	0.12488700000000	-9.02951000000000	88.34286600000000	9.56822500000000	0.32206100000000	0.00000000000000	-0.09900000000000	0.00000000000000	21.03604800000000	0.00000000000000	0.00000000000000	4.61862900000000	0.00000000000000	
23.10323800000000	-43.64637800000000	796.79407700000002	68.01323600000001	0.07038100000000	0.00000000000000	0.12480100000000	-9.15892400000000	94.40416600000000	9.81857700000000	0.32513000000000	0.00000000000000	-0.09917600000000	0.00000000000000	20.93368000000000	0.00000000000000	0.00000000000000	4.80297100000000	0.00000000000000	
23.10491300000000	-43.79004600000000	794.21428000000003	67.90982500000000	0.06984900000000	0.00000000000000	0.12471000000000	-9.20596900000000	100.32935200000000	10.00137300000000	0.32798800000000	0.00000000000000	-0.09934200000000	0.00000000000000	20.82977300000000	0.00000000000000	0.00000000000000	4.95912500000000	0.00000000000000	
23.10657800000000	-43.93775900000000	791.47406599999999	67.77460300000000	0.06933200000000	0.00000000000000	0.12461400000000	-9.17893900000000	106.16369100000000	10.12530700000000	0.33065400000000	0.00000000000000	-0.09950300000000	0.00000000000000	20.72460800000000	0.00000000000000	0.00000000000000	5.09071100000000	0.00000000000000	
23.10823700000000	-44.09025000000000	788.57401500000003	67.60699800000000	0.06882600000000	0.00000000000000	0.12451200000000	-9.08651100000000	111.95668800000000	10.19939100000000	0.33314300000000	0.00000000000000	-0.09965700000000	0.00000000000000	20.61846100000000	0.00000000000000	0.00000000000000	5.20163700000000	0.00000000000000	
23.10991100000000	-44.24821700000000	785.51483700000006	67.40650500000000	0.06833400000000	0.00000000000000	0.12440500000000	-8.93700800000000	117.75759900000000	10.23221900000000	0.33547000000000	0.00000000000000	-0.09980700000000	0.00000000000000	20.51159500000000	0.00000000000000	0.00000000000000	5.29573700000000	0.00000000000000	
23.11157200000000	-44.41232600000000	782.29735600000004	67.17268199999999	0.06785300000000	0.00000000000000	0.12429300000000	-8.73780400000000	123.61173700000001	10.23138200000000	0.33764500000000	0.00000000000000	-0.09995400000000	0.00000000000000	20.40426600000000	0.00000000000000	0.00000000000000	5.37647700000000	0.00000000000000	
23.11323800000000	-44.58320300000000	778.92250500000000	66.90515800000000	0.06738400000000	0.00000000000000	0.12417500000000	-8.49492300000000	129.55768300000000	10.20306600000000	0.33967900000000	0.00000000000000	-0.10009900000000	0.00000000000000	20.29671600000000	0.00000000000000	0.00000000000000	5.44673000000000	0.00000000000000	
23.11490800000000	-44.76143000000000	775.39131799999996	66.60363200000000	0.06692500000000	0.00000000000000	0.12405200000000	-8.21280600000000	135.62549300000001	10.15183000000000	0.34158100000000	0.00000000000000	-0.10024100000000	0.00000000000000	20.18917600000000	0.00000000000000	0.00000000000000	5.50865200000000	0.00000000000000	
23.11657200000000	-44.94754500000000	771.70491700000002	66.26787800000000	0.06647700000000	0.00000000000000	0.12392300000000	-7.89424900000000	141.83582699999999	10.08053600000000	0.34335900000000	0.00000000000000	-0.10038200000000	0.00000000000000	20.08186100000000	0.00000000000000	0.00000000000000	5.56362100000000	0.00000000000000	
23.11824000000000	-45.14203500000000	767.86450900000000	65.89774000000000	0.06603800000000	0.00000000000000	0.12378800000000	-7.54048000000000	148.19991899999999	9.99042800000000	0.34501900000000	0.00000000000000	-0.10052300000000	0.00000000000000	19.97497500000000	0.00000000000000	0.00000000000000	5.61225500000000	0.00000000000000	
23.11991200000000	-45.34533300000000	763.87137199999995	65.49314200000001	0.06560700000000	0.00000000000000	0.12364800000000	-7.15133800000000	154.72022699999999	9.88131300000000	0.34656600000000	0.00000000000000	-0.10066300000000	0.00000000000000	19.86870300000000	0.00000000000000	0.00000000000000	5.65448300000000	0.00000000000000	
23.12157700000000	-45.55781400000000	759.72684800000002	65.05408000000000	0.06518500000000	0.00000000000000	0.12350200000000	-6.72553800000000	161.39159500000000	9.75182100000000	0.34800800000000	0.00000000000000	-0.10080400000000	0.00000000000000	19.76321500000000	0.00000000000000	0.00000000000000	5.68965700000000	0.00000000000000	
23.12324500000000	-45.77979200000000	755.43233599999996	64.58063100000000	0.06476900000000	0.00000000000000	0.12335100000000	-6.26097200000000	168.20274000000001	9.59970100000000	0.34934800000000	0.00000000000000	-0.10094500000000	0.00000000000000	19.65866500000000	0.00000000000000	0.00000000000000	5.71668900000000	0.00000000000000	
23.12490600000000	-46.01151700000000	750.98928200000000	64.07294700000000	0.06435900000000	0.00000000000000	0.12319400000000	-5.75502100000000	175.13790100000000	9.42213300000000	0.35059000000000	0.00000000000000	-0.10108700000000	0.00000000000000	19.55518700000000	0.00000000000000	0.00000000000000	5.73419500000000	0.00000000000000	
23.12657000000000	-46.25317100000000	746.39917000000003	63.53125900000000	0.06395400000000	0.00000000000000	0.12303200000000	-5.20486000000000	182.17848599999999	9.21603000000000	0.35173800000000	0.00000000000000	-0.10123000000000	0.00000000000000	19.45290000000000	0.00000000000000	0.00000000000000	5.74064000000000	0.00000000000000	
23.12823800000000	-46.50486400000000	741.66351899999995	62.95587400000000	0.06355400000000	0.00000000000000	0.12286400000000	-4.60772500000000	189.30461700000001	8.97830200000000	0.35279600000000	0.00000000000000	-0.10137400000000	0.00000000000000	19.35190300000000	0.00000000000000	0.00000000000000	5.73447000000000	0.00000000000000	
23.12990500000000	-46.76663200000000	736.78386799999998	62.34717800000000	0.06315600000000	0.00000000000000	0.12269000000000	-3.96113300000000	196.49645300000000	8.70607500000000	0.35376700000000	0.00000000000000	-0.10152000000000	0.00000000000000	19.25227600000000	0.00000000000000	0.00000000000000	5.71422000000000	0.00000000000000	
23.13157100000000	-47.03843500000000	731.76177700000005	61.70563200000000	0.06275900000000	0.00000000000000	0.12251200000000	-3.26305500000000	203.73526400000000	8.39686600000000	0.35465300000000	0.00000000000000	-0.10166700000000	0.00000000000000	19.15408100000000	0.00000000000000	0.00000000000000	5.67860200000000	0.00000000000000	
23.13324800000000	-47.32015300000000	726.59881199999995	61.03177400000000	0.06236400000000	0.00000000000000	0.12232700000000	-2.51202700000000	211.00420700000001	8.04868600000000	0.35545800000000	0.00000000000000	-0.10181600000000	0.00000000000000	19.05735900000000	0.00000000000000	0.00000000000000	5.62656100000000	0.00000000000000	
23.13490800000000	-47.61158200000000	721.29655000000002	60.32621500000000	0.06196800000000	0.00000000000000	0.12213800000000	-1.70721000000000	218.28881600000000	7.66011100000000	0.35618300000000	0.00000000000000	-0.10196700000000	0.00000000000000	18.96213600000000	0.00000000000000	0.00000000000000	5.55731500000000	0.00000000000000	
23.13657300000000	-47.91243700000000	715.85656300000005	59.58963900000000	0.06157000000000	0.00000000000000	0.12194400000000	-0.84840100000000	225.57722300000000	7.23029000000000	0.35683100000000	0.00000000000000	-0.10212000000000	0.00000000000000	18.86841400000000	0.00000000000000	0.00000000000000	5.47035800000000	0.00000000000000	
23.13823700000000	-48.22234600000000	710.28042300000004	58.82280100000000	0.06116900000000	0.00000000000000	0.12174500000000	0.06399100000000	232.86015300000000	6.75892300000000	0.35740400000000	0.00000000000000	-0.10227400000000	0.00000000000000	18.77617900000000	0.00000000000000	0.00000000000000	5.36545700000000	0.00000000000000	
23.13991300000000	-48.54085000000000	704.56969200000003	58.02652600000000	0.06076400000000	0.00000000000000	0.12154100000000	1.02900200000000	240.13073499999999	6.24620900000000	0.35790400000000	0.00000000000000	-0.10243100000000	0.00000000000000	18.68539900000000	0.00000000000000	0.00000000000000	5.24262800000000	0.00000000000000	
23.14157300000000	-48.86740300000000	698.72592399999996	57.20170400000000	0.06035400000000	0.00000000000000	0.12133200000000	2.04518900000000	247.38417999999999	5.69277500000000	0.35833200000000	0.00000000000000	-0.10259000000000	0.00000000000000	18.59602200000000	0.00000000000000	0.00000000000000	5.10209800000000	0.00000000000000	
23.14323900000000	-49.20136900000000	692.75066500000003	56.34928900000000	0.05993700000000	0.00000000000000	0.12111800000000	3.11071500000000	254.61738900000000	5.09958900000000	0.35869100000000	0.00000000000000	-0.10275000000000	0.00000000000000	18.50797900000000	0.00000000000000	0.00000000000000	4.94427300000000	0.00000000000000	
23.14490300000000	-49.54202700000000	686.64545099999998	55.47029900000000	0.05951200000000	0.00000000000000	0.12090000000000	4.22343900000000	261.82851799999997	4.46788200000000	0.35898200000000	0.00000000000000	-0.10291200000000	0.00000000000000	18.42118200000000	0.00000000000000	0.00000000000000	4.76969100000000	0.00000000000000	
23.14657500000000	-49.88856600000000	680.41180799999995	54.56580800000000	0.05907800000000	0.00000000000000	0.12067800000000	5.38099800000000	269.01656000000003	3.79906800000000	0.35920700000000	0.00000000000000	-0.10307700000000	0.00000000000000	18.33552900000000	0.00000000000000	0.00000000000000	4.57898300000000	0.00000000000000	
23.14824100000000	-50.24008700000000	674.05125999999996	53.63694600000000	0.05863400000000	0.00000000000000	0.12045200000000	6.58088400000000	276.18096100000002	3.09467000000000	0.35936700000000	0.00000000000000	-0.10324200000000	0.00000000000000	18.25089900000000	0.00000000000000	0.00000000000000	4.37284300000000	0.00000000000000	
23.14991800000000	-50.59560900000000	667.56533100000001	52.68489600000000	0.05817800000000	0.00000000000000	0.12022200000000	7.82050100000000	283.32129800000001	2.35626500000000	0.35946400000000	0.00000000000000	-0.10341000000000	0.00000000000000	18.16715600000000	0.00000000000000	0.00000000000000	4.15199500000000	0.00000000000000	
23.15157800000000	-50.95406400000000	660.95554700000002	51.71089000000000	0.05771000000000	0.00000000000000	0.11998800000000	9.09721800000000	290.43703299999999	1.58544300000000	0.35950000000000	0.00000000000000	-0.10357900000000	0.00000000000000	18.08414900000000	0.00000000000000	0.00000000000000	3.91717300000000	0.00000000000000	
23.15324400000000	-51.31430400000000	654.22344499999997	50.71620300000000	0.05722800000000	0.00000000000000	0.11975000000000	10.40839900000000	297.52733899999998	0.78377400000000	0.35947600000000	0.00000000000000	-0.10375000000000	0.00000000000000	18.00171400000000	0.00000000000000	0.00000000000000	3.66910300000000	0.00000000000000	
23.15491100000000	-51.67510100000000	647.37057700000003	49.70215500000000	0.05673100000000	0.00000000000000	0.11951000000000	11.75142200000000	304.59101099999998	-0.04720300000000	0.35939300000000	0.00000000000000	-0.10392200000000	0.00000000000000	17.91967200000000	0.00000000000000	0.00000000000000	3.40849900000000	0.00000000000000	
23.15657800000000	-52.03515300000000	640.39851899999996	48.67010100000000	0.05621800000000	0.00000000000000	0.11926600000000	13.12369300000000	311.62643800000001	-0.90599100000000	0.35925400000000	0.00000000000000	-0.10409500000000	0.00000000000000	17.83783000000000	0.00000000000000	0.00000000000000	3.13605500000000	0.00000000000000	
23.15824200000000	-52.39308300000000	633.30887600000005	47.62143000000000	0.05568900000000	0.00000000000000	0.11901900000000	14.52263900000000	318.63163200000002	-1.79112300000000	0.35905900000000	0.00000000000000	-0.10426900000000	0.00000000000000	17.75598500000000	0.00000000000000	0.00000000000000	2.85245100000000	0.00000000000000	
